<svg width="15" height="17" viewBox="0 0 15 17" fill="none" xmlns="http://www.w3.org/2000/svg">
<path d="M13.9263 4.51562C14.0149 4.60417 14.1034 4.71801 14.192 4.85714H9.71429V0.379464C9.85342 0.468006 9.96726 0.556548 10.0558 0.645089L13.9263 4.51562ZM9.41071 6.07143H14.5714V16.0893C14.5714 16.3423 14.4829 16.5573 14.3058 16.7344C14.1287 16.9115 13.9137 17 13.6607 17H0.910714C0.657738 17 0.442708 16.9115 0.265625 16.7344C0.0885417 16.5573 0 16.3423 0 16.0893V0.910714C0 0.657738 0.0885417 0.442708 0.265625 0.265625C0.442708 0.0885417 0.657738 0 0.910714 0H8.5V5.16071C8.5 5.41369 8.58854 5.62872 8.76562 5.8058C8.94271 5.98289 9.15774 6.07143 9.41071 6.07143ZM10.9286 13.0536V12.4464C10.9286 12.3579 10.9001 12.2852 10.8432 12.2282C10.7863 12.1713 10.7135 12.1429 10.625 12.1429H3.94643C3.85789 12.1429 3.78516 12.1713 3.72824 12.2282C3.67132 12.2852 3.64286 12.3579 3.64286 12.4464V13.0536C3.64286 13.1421 3.67132 13.2148 3.72824 13.2718C3.78516 13.3287 3.85789 13.3571 3.94643 13.3571H10.625C10.7135 13.3571 10.7863 13.3287 10.8432 13.2718C10.9001 13.2148 10.9286 13.1421 10.9286 13.0536ZM10.9286 10.625V10.0179C10.9286 9.92932 10.9001 9.85658 10.8432 9.79967C10.7863 9.74275 10.7135 9.71429 10.625 9.71429H3.94643C3.85789 9.71429 3.78516 9.74275 3.72824 9.79967C3.67132 9.85658 3.64286 9.92932 3.64286 10.0179V10.625C3.64286 10.7135 3.67132 10.7863 3.72824 10.8432C3.78516 10.9001 3.85789 10.9286 3.94643 10.9286H10.625C10.7135 10.9286 10.7863 10.9001 10.8432 10.8432C10.9001 10.7863 10.9286 10.7135 10.9286 10.625ZM10.9286 8.19643V7.58929C10.9286 7.50074 10.9001 7.42801 10.8432 7.37109C10.7863 7.31417 10.7135 7.28571 10.625 7.28571H3.94643C3.85789 7.28571 3.78516 7.31417 3.72824 7.37109C3.67132 7.42801 3.64286 7.50074 3.64286 7.58929V8.19643C3.64286 8.28497 3.67132 8.3577 3.72824 8.41462C3.78516 8.47154 3.85789 8.5 3.94643 8.5H10.625C10.7135 8.5 10.7863 8.47154 10.8432 8.41462C10.9001 8.3577 10.9286 8.28497 10.9286 8.19643Z" fill="#1F262C"/>
</svg>
