<svg width="14" height="17" viewBox="0 0 14 17" fill="none" xmlns="http://www.w3.org/2000/svg">
<path d="M6.1542 8.20538C6.79176 8.20538 7.41499 8.01632 7.9451 7.66211C8.47521 7.30791 8.88838 6.80446 9.13236 6.21543C9.37634 5.62641 9.44018 4.97826 9.3158 4.35296C9.19142 3.72765 8.88441 3.15327 8.43359 2.70245C7.98277 2.25163 7.40839 1.94462 6.78308 1.82024C6.15778 1.69586 5.50963 1.7597 4.92061 2.00368C4.33158 2.24766 3.82813 2.66083 3.47393 3.19094C3.11972 3.72105 2.93066 4.34428 2.93066 4.98184C2.93066 5.83677 3.27029 6.65669 3.87482 7.26122C4.47935 7.86575 5.29927 8.20538 6.1542 8.20538ZM5.77617 5.27489C5.46528 5.27489 5.16713 5.15139 4.9473 4.93156C4.72747 4.71173 4.60397 4.41358 4.60397 4.10269C4.60397 3.79181 4.72747 3.49365 4.9473 3.27383C5.16713 3.054 5.46528 2.9305 5.77617 2.9305H5.86115V2.21839H6.44725V2.9305H6.53223C6.84312 2.9305 7.14127 3.054 7.3611 3.27383C7.58093 3.49365 7.70443 3.79181 7.70443 4.10269H7.11833C7.11833 3.94725 7.05658 3.79817 6.94667 3.68826C6.83675 3.57834 6.68768 3.5166 6.53223 3.5166H6.44725V4.68879H6.53223C6.84312 4.68879 7.14127 4.81229 7.3611 5.03212C7.58093 5.25195 7.70443 5.5501 7.70443 5.86099C7.70443 6.17187 7.58093 6.47002 7.3611 6.68985C7.14127 6.90968 6.84312 7.03318 6.53223 7.03318H6.44725V7.74529H5.86115V7.03318H5.77617C5.46528 7.03318 5.16713 6.90968 4.9473 6.68985C4.72747 6.47002 4.60397 6.17187 4.60397 5.86099H5.19007C5.19007 6.01643 5.25182 6.1655 5.36173 6.27542C5.47165 6.38533 5.62072 6.44708 5.77617 6.44708H5.86115V5.27489H5.77617Z" fill="#1F262C"/>
<path d="M6.15419 9.96366C7.13951 9.96366 8.10269 9.67148 8.92195 9.12407C9.74121 8.57666 10.3797 7.79861 10.7568 6.8883C11.1339 5.97799 11.2325 4.97631 11.0403 4.00992C10.8481 3.04354 10.3736 2.15587 9.67688 1.45915C8.98016 0.762425 8.09248 0.287952 7.1261 0.0957267C6.15972 -0.0964983 5.15804 0.00215855 4.24773 0.379221C3.33742 0.756284 2.55936 1.39482 2.01195 2.21408C1.46454 3.03333 1.17236 3.99652 1.17236 4.98183C1.17236 6.3031 1.69723 7.57024 2.63151 8.50452C3.56578 9.43879 4.83293 9.96366 6.15419 9.96366ZM6.15419 1.1722C6.90767 1.1722 7.64422 1.39563 8.27071 1.81424C8.8972 2.23284 9.38549 2.82783 9.67384 3.52395C9.96218 4.22007 10.0376 4.98606 9.89063 5.72505C9.74363 6.46405 9.3808 7.14286 8.84801 7.67565C8.31522 8.20844 7.63641 8.57127 6.89742 8.71827C6.15842 8.86526 5.39243 8.78982 4.69631 8.50147C4.00019 8.21313 3.40521 7.72484 2.9866 7.09835C2.56799 6.47186 2.34456 5.73531 2.34456 4.98183C2.34456 3.97145 2.74593 3.00246 3.46037 2.28801C4.17482 1.57357 5.14382 1.1722 6.15419 1.1722Z" fill="#1F262C"/>
<path d="M5.86098 3.5166H5.77599C5.62055 3.5166 5.47147 3.57835 5.36156 3.68827C5.25164 3.79818 5.18989 3.94726 5.18989 4.1027C5.18989 4.25814 5.25164 4.40722 5.36156 4.51713C5.47147 4.62705 5.62055 4.6888 5.77599 4.6888H5.86098V3.5166ZM7.11816 5.86099C7.11816 5.70555 7.05641 5.55647 6.94649 5.44656C6.83658 5.33664 6.6875 5.27489 6.53206 5.27489H6.44707V6.44709H6.53206C6.6875 6.44709 6.83658 6.38534 6.94649 6.27543C7.05641 6.16551 7.11816 6.01643 7.11816 5.86099ZM12.6011 12.5572C12.4885 12.5388 12.3734 12.5433 12.2626 12.5705C12.1518 12.5977 12.0477 12.647 11.9564 12.7154L10.1307 14.081L6.78701 14.6525L6.06318 14.292L6.2859 14.0693L9.11382 13.8319C9.34724 13.8106 9.56415 13.7024 9.72155 13.5287C9.87895 13.355 9.96536 13.1286 9.96366 12.8942C9.96366 12.6647 9.88055 12.443 9.7297 12.27C9.57885 12.0971 9.37048 11.9846 9.14312 11.9535L5.31297 11.4289C5.27905 11.4229 5.24433 11.4229 5.21041 11.4289L2.6052 12.015H0.293049C0.215327 12.015 0.140789 12.0459 0.0858321 12.1008C0.0308748 12.1558 0 12.2303 0 12.3081V15.5316C0 15.6093 0.0308748 15.6839 0.0858321 15.7388C0.140789 15.7938 0.215327 15.8247 0.293049 15.8247H2.00445L5.47415 16.9968C5.50527 17.0011 5.53681 17.0011 5.56793 16.9968C5.5844 16.9999 5.60128 16.9999 5.61775 16.9968L10.5996 16.1177C10.6531 16.11 10.703 16.0865 10.7432 16.0503L13.026 14.0224C13.1768 13.8868 13.2739 13.7016 13.2997 13.5005C13.3255 13.2994 13.2783 13.0957 13.1667 12.9264C13.1021 12.8299 13.0188 12.7475 12.9216 12.684C12.8244 12.6206 12.7154 12.5774 12.6011 12.5572Z" fill="#1F262C"/>
</svg>
