<svg width="17" height="17" viewBox="0 0 17 17" fill="none" xmlns="http://www.w3.org/2000/svg">
<path d="M0.944444 9.44444H6.61111C7.13056 9.44444 7.55556 9.01944 7.55556 8.5V0.944444C7.55556 0.425 7.13056 0 6.61111 0H0.944444C0.425 0 0 0.425 0 0.944444V8.5C0 9.01944 0.425 9.44444 0.944444 9.44444ZM0.944444 17H6.61111C7.13056 17 7.55556 16.575 7.55556 16.0556V12.2778C7.55556 11.7583 7.13056 11.3333 6.61111 11.3333H0.944444C0.425 11.3333 0 11.7583 0 12.2778V16.0556C0 16.575 0.425 17 0.944444 17ZM10.3889 17H16.0556C16.575 17 17 16.575 17 16.0556V8.5C17 7.98056 16.575 7.55556 16.0556 7.55556H10.3889C9.86944 7.55556 9.44444 7.98056 9.44444 8.5V16.0556C9.44444 16.575 9.86944 17 10.3889 17ZM9.44444 0.944444V4.72222C9.44444 5.24167 9.86944 5.66667 10.3889 5.66667H16.0556C16.575 5.66667 17 5.24167 17 4.72222V0.944444C17 0.425 16.575 0 16.0556 0H10.3889C9.86944 0 9.44444 0.425 9.44444 0.944444Z" fill="#673AB7"/>
</svg>
