<svg width="17" height="17" viewBox="0 0 17 17" fill="none" xmlns="http://www.w3.org/2000/svg">
<path d="M16.751 16.502H0.249023C0.182978 16.502 0.119638 16.5282 0.0729373 16.5749C0.0262363 16.6216 0 16.6849 0 16.751C0 16.817 0.0262363 16.8804 0.0729373 16.9271C0.119638 16.9738 0.182978 17 0.249023 17H16.751C16.817 17 16.8804 16.9738 16.9271 16.9271C16.9738 16.8804 17 16.817 17 16.751C17 16.6849 16.9738 16.6216 16.9271 16.5749C16.8804 16.5282 16.817 16.502 16.751 16.502ZM4.48873 15.3608C4.37633 15.3607 4.26429 15.3733 4.15471 15.3983C3.77902 15.0399 3.27939 14.8405 2.76018 14.8418C1.94371 14.8418 1.24146 15.3213 0.939648 16.0039H5.70064C5.56745 15.805 5.38706 15.6421 5.17559 15.5299C4.96411 15.4177 4.72814 15.3596 4.48873 15.3608ZM14.2412 14.8418C13.7219 14.8405 13.2223 15.0399 12.8466 15.3983C12.737 15.3733 12.625 15.3607 12.5126 15.3608C12.273 15.3593 12.0367 15.4173 11.825 15.5296C11.6133 15.6418 11.4327 15.8048 11.2994 16.0039H16.0617C15.7599 15.3213 15.0576 14.8418 14.2412 14.8418Z" fill="#1F262C"/>
<path d="M10.7336 16.004C10.888 15.6624 11.138 15.3728 11.4535 15.1703C11.769 14.9678 12.1364 14.861 12.5113 14.8628C12.5724 14.8628 12.6335 14.8655 12.6942 14.8711C13.1363 14.5273 13.681 14.3416 14.2412 14.3439C14.2923 14.3439 14.3431 14.3459 14.3936 14.3488V11.6611L11.1015 9.62305C10.3048 10.0626 9.40983 10.2931 8.5 10.2931C7.59017 10.2931 6.69517 10.0626 5.89854 9.62305L2.60645 11.6611V14.3488C2.65691 14.3459 2.70605 14.3439 2.75885 14.3439C3.31896 14.3416 3.86365 14.5273 4.30578 14.8711C4.36654 14.8655 4.42764 14.8628 4.48873 14.8628C4.86362 14.861 5.23101 14.9678 5.54649 15.1703C5.86196 15.3728 6.11202 15.6624 6.26643 16.004H6.92285V12.7667C6.92285 12.7007 6.94909 12.6373 6.99579 12.5906C7.04249 12.5439 7.10583 12.5177 7.17188 12.5177H9.82812C9.89417 12.5177 9.95751 12.5439 10.0042 12.5906C10.0509 12.6373 10.0771 12.7007 10.0771 12.7667V16.004H10.7336Z" fill="#1F262C"/>
<path d="M9.5791 16.0039V13.0156H7.4209V16.0039H9.5791ZM8.91504 14.5928C8.91504 14.5267 8.94128 14.4634 8.98798 14.4167C9.03468 14.37 9.09802 14.3438 9.16406 14.3438C9.23011 14.3438 9.29345 14.37 9.34015 14.4167C9.38685 14.4634 9.41309 14.5267 9.41309 14.5928V14.9248C9.41309 14.9909 9.38685 15.0542 9.34015 15.1009C9.29345 15.1476 9.23011 15.1738 9.16406 15.1738C9.09802 15.1738 9.03468 15.1476 8.98798 15.1009C8.94128 15.0542 8.91504 14.9909 8.91504 14.9248V14.5928ZM4.34662 8.33764L1.39619 10.1638C1.36013 10.1862 1.33037 10.2173 1.30974 10.2544C1.28911 10.2915 1.2783 10.3332 1.27832 10.3756V11.897L5.42672 9.33008C5.02349 9.0496 4.66015 8.71574 4.34662 8.33764ZM11.5733 9.33008L15.7217 11.8973V10.376C15.7217 10.3336 15.7109 10.2918 15.6903 10.2547C15.6696 10.2177 15.6399 10.1865 15.6038 10.1641L12.6534 8.33797C12.3398 8.71596 11.9765 9.0497 11.5733 9.33008ZM8.5 7.96875C9.10744 7.96875 9.70125 7.78862 10.2063 7.45115C10.7114 7.11367 11.105 6.634 11.3375 6.07279C11.57 5.51159 11.6308 4.89406 11.5123 4.29828C11.3938 3.70251 11.1013 3.15526 10.6717 2.72573C10.2422 2.29621 9.69495 2.00369 9.09918 1.88519C8.50341 1.76668 7.88587 1.8275 7.32467 2.05996C6.76346 2.29242 6.28379 2.68607 5.94632 3.19115C5.60884 3.69622 5.42871 4.29002 5.42871 4.89746C5.42968 5.71172 5.75357 6.49236 6.32934 7.06812C6.90511 7.64389 7.68574 7.96778 8.5 7.96875ZM7.83594 3.41727V2.9667C7.83594 2.90066 7.86217 2.83732 7.90887 2.79061C7.95558 2.74391 8.01892 2.71768 8.08496 2.71768C8.15101 2.71768 8.21435 2.74391 8.26105 2.79061C8.30775 2.83732 8.33398 2.90066 8.33398 2.9667V3.36115H8.66602V2.9667C8.66602 2.90066 8.69225 2.83732 8.73895 2.79061C8.78565 2.74391 8.84899 2.71768 8.91504 2.71768C8.98108 2.71768 9.04442 2.74391 9.09113 2.79061C9.13783 2.83732 9.16406 2.90066 9.16406 2.9667V3.36115H9.29688C9.36292 3.36115 9.42626 3.38739 9.47296 3.43409C9.51966 3.48079 9.5459 3.54413 9.5459 3.61018C9.5459 3.67622 9.51966 3.73956 9.47296 3.78626C9.42626 3.83296 9.36292 3.8592 9.29688 3.8592H8.14738C8.0447 3.86218 7.94723 3.90506 7.87566 3.97874C7.80408 4.05242 7.76405 4.1511 7.76405 4.25382C7.76405 4.35654 7.80408 4.45522 7.87566 4.5289C7.94723 4.60258 8.0447 4.64546 8.14738 4.64844H8.85262C9.06179 4.64867 9.26425 4.72233 9.42466 4.85658C9.58508 4.99083 9.69326 5.17715 9.73034 5.38301C9.76742 5.58888 9.73104 5.80122 9.62754 5.98301C9.52405 6.16479 9.36002 6.30446 9.16406 6.37766V6.82822C9.16406 6.89427 9.13783 6.95761 9.09113 7.00431C9.04442 7.05101 8.98108 7.07725 8.91504 7.07725C8.84899 7.07725 8.78565 7.05101 8.73895 7.00431C8.69225 6.95761 8.66602 6.89427 8.66602 6.82822V6.43377H8.33398V6.82822C8.33398 6.89427 8.30775 6.95761 8.26105 7.00431C8.21435 7.05101 8.15101 7.07725 8.08496 7.07725C8.01892 7.07725 7.95558 7.05101 7.90887 7.00431C7.86217 6.95761 7.83594 6.89427 7.83594 6.82822V6.43377H7.70312C7.63708 6.43377 7.57374 6.40753 7.52704 6.36083C7.48034 6.31413 7.4541 6.25079 7.4541 6.18475C7.4541 6.1187 7.48034 6.05536 7.52704 6.00866C7.57374 5.96196 7.63708 5.93572 7.70312 5.93572H8.85262C8.9553 5.93275 9.05277 5.88986 9.12434 5.81618C9.19592 5.7425 9.23595 5.64383 9.23595 5.5411C9.23595 5.43838 9.19592 5.33971 9.12434 5.26603C9.05277 5.19235 8.9553 5.14946 8.85262 5.14649H8.14738C7.93821 5.14626 7.73575 5.07259 7.57534 4.93834C7.41492 4.80409 7.30674 4.61778 7.26966 4.41191C7.23258 4.20605 7.26897 3.9937 7.37246 3.81192C7.47595 3.63014 7.63998 3.49046 7.83594 3.41727Z" fill="#1F262C"/>
<path d="M8.5 9.79492C11.2004 9.79492 13.3975 7.59787 13.3975 4.89746C13.3975 2.19705 11.2004 0 8.5 0C5.79959 0 3.60254 2.19705 3.60254 4.89746C3.60254 7.59787 5.79959 9.79492 8.5 9.79492ZM8.5 1.32812C9.20595 1.32812 9.89604 1.53746 10.483 1.92967C11.07 2.32187 11.5275 2.87932 11.7976 3.53154C12.0678 4.18375 12.1385 4.90142 12.0008 5.5938C11.863 6.28619 11.5231 6.92218 11.0239 7.42136C10.5247 7.92054 9.88873 8.26049 9.19634 8.39821C8.50396 8.53594 7.78628 8.46525 7.13407 8.1951C6.48186 7.92494 5.92441 7.46745 5.53221 6.88048C5.14 6.2935 4.93066 5.60341 4.93066 4.89746C4.93172 3.95114 5.30811 3.04388 5.97726 2.37472C6.64641 1.70557 7.55368 1.32918 8.5 1.32812Z" fill="#1F262C"/>
</svg>
