<svg width="17" height="17" viewBox="0 0 17 17" fill="none" xmlns="http://www.w3.org/2000/svg">
<path d="M16.15 5.95H9.35V4.25C9.35 3.5737 9.61866 2.9251 10.0969 2.44688C10.5751 1.96866 11.2237 1.7 11.9 1.7C12.1254 1.7 12.3416 1.61045 12.501 1.45104C12.6604 1.29163 12.75 1.07543 12.75 0.85C12.75 0.624566 12.6604 0.408365 12.501 0.248959C12.3416 0.0895533 12.1254 0 11.9 0C11.049 0.00175639 10.2181 0.258958 9.51492 0.738301C8.81174 1.21764 8.26866 1.89705 7.956 2.68855C7.2373 1.75519 6.18838 1.1326 5.02482 0.948735C3.86125 0.764874 2.67146 1.03371 1.7 1.7C1.7 1.7 3.22405 5.491 7.701 3.74935C7.67367 3.91502 7.65663 4.08222 7.65 4.25V5.95H0.85C0.624566 5.95 0.408365 6.03955 0.248959 6.19896C0.0895533 6.35837 0 6.57457 0 6.8V16.15C0 16.3754 0.0895533 16.5916 0.248959 16.751C0.408365 16.9104 0.624566 17 0.85 17H16.15C16.3754 17 16.5916 16.9104 16.751 16.751C16.9104 16.5916 17 16.3754 17 16.15V6.8C17 6.57457 16.9104 6.35837 16.751 6.19896C16.5916 6.03955 16.3754 5.95 16.15 5.95ZM1.7 15.3V12.75C2.3763 12.75 3.0249 13.0187 3.50312 13.4969C3.98134 13.9751 4.25 14.6237 4.25 15.3H1.7ZM1.7 10.2V7.65H4.25C4.25 8.3263 3.98134 8.97491 3.50312 9.45312C3.0249 9.93134 2.3763 10.2 1.7 10.2ZM8.5 12.75C8.16377 12.75 7.83509 12.6503 7.55553 12.4635C7.27597 12.2767 7.05807 12.0112 6.9294 11.7006C6.80074 11.3899 6.76707 11.0481 6.83266 10.7183C6.89826 10.3886 7.06017 10.0857 7.29792 9.84792C7.53567 9.61017 7.83858 9.44826 8.16835 9.38266C8.49811 9.31707 8.83993 9.35074 9.15056 9.4794C9.4612 9.60807 9.7267 9.82597 9.9135 10.1055C10.1003 10.3851 10.2 10.7138 10.2 11.05C10.2 11.5009 10.0209 11.9333 9.70208 12.2521C9.38327 12.5709 8.95087 12.75 8.5 12.75ZM15.3 15.3H12.75C12.75 14.6237 13.0187 13.9751 13.4969 13.4969C13.9751 13.0187 14.6237 12.75 15.3 12.75V15.3ZM15.3 10.2C14.6237 10.2 13.9751 9.93134 13.4969 9.45312C13.0187 8.97491 12.75 8.3263 12.75 7.65H15.3V10.2Z" fill="#1F262C"/>
</svg>
